<?xml version="1.0" standalone="no"?>
<!DOCTYPE svg PUBLIC "-//W3C//DTD SVG 20010904//EN"
 "http://www.w3.org/TR/2001/REC-SVG-20010904/DTD/svg10.dtd">
<svg version="1.0" xmlns="http://www.w3.org/2000/svg"
 width="3000.000000pt" height="3000.000000pt" viewBox="0 0 3000.000000 3000.000000"
 preserveAspectRatio="xMidYMid meet">
<metadata>
Created by potrace 1.11, written by Peter Selinger 2001-2013
</metadata>
<g transform="translate(0.000000,3000.000000) scale(0.100000,-0.100000)"
fill="#000000" stroke="none">
<path d="M9330 29989 c-2255 -107 -4357 -963 -6050 -2463 -308 -273 -741 -721
-1017 -1051 -1084 -1301 -1814 -2866 -2107 -4517 -62 -347 -97 -630 -138
-1108 -17 -198 -25 -11088 -8 -11465 79 -1808 615 -3480 1595 -4970 371 -565
736 -1015 1224 -1508 1239 -1253 2736 -2124 4428 -2577 595 -159 1123 -246
1893 -312 198 -17 11088 -25 11465 -8 1808 79 3480 615 4970 1595 565 371
1015 736 1508 1224 1253 1239 2124 2736 2577 4428 159 595 246 1123 312 1893
17 198 25 11088 8 11465 -79 1808 -615 3480 -1595 4970 -371 565 -736 1015
-1224 1508 -1239 1253 -2736 2124 -4428 2577 -595 159 -1123 246 -1893 312
-112 9 -1404 12 -5750 14 -3083 0 -5679 -2 -5770 -7z m10055 -2129 c1250 -67
2606 -439 3550 -974 553 -314 1019 -718 1350 -1171 691 -945 888 -2204 584
-3720 -469 -2337 -2101 -5319 -4833 -8830 -2677 -3440 -6431 -7377 -10374
-10879 -172 -153 -316 -276 -318 -273 -10 10 -43 584 -69 1212 -185 4461 110
9078 819 12836 454 2404 1059 4439 1837 6174 132 295 445 920 595 1190 734
1317 1568 2340 2504 3069 379 295 729 516 1145 721 807 400 1583 597 2555 648
140 8 483 6 655 -3z"/>
</g>
</svg>
