<?xml version="1.0" standalone="no"?>
<!DOCTYPE svg PUBLIC "-//W3C//DTD SVG 20010904//EN"
 "http://www.w3.org/TR/2001/REC-SVG-20010904/DTD/svg10.dtd">
<svg version="1.0" xmlns="http://www.w3.org/2000/svg"
 width="3000.000000pt" height="3000.000000pt" viewBox="0 0 3000.000000 3000.000000"
 preserveAspectRatio="xMidYMid meet">
<metadata>
Created by potrace 1.11, written by Peter Selinger 2001-2013
</metadata>
<g transform="translate(0.000000,3000.000000) scale(0.100000,-0.100000)"
fill="#000000" stroke="none">
<path d="M11130 29393 c-831 -48 -1746 -228 -2565 -506 -1210 -411 -2113
-1019 -2688 -1809 -188 -259 -376 -607 -492 -911 -127 -334 -217 -726 -260
-1127 -22 -208 -31 -677 -16 -910 105 -1686 833 -3661 2226 -6045 2315 -3961
6550 -8971 11805 -13966 971 -922 2825 -2610 2850 -2594 4 2 10 62 13 132 4
70 16 292 27 493 110 2037 118 4359 24 6530 -250 5785 -1190 10770 -2694
14280 -685 1600 -1450 2856 -2374 3900 -148 168 -572 591 -726 726 -578 506
-1144 884 -1759 1173 -775 365 -1582 569 -2489 631 -137 9 -740 11 -882 3z"/>
</g>
</svg>
