<?xml version="1.0" standalone="no"?>
<!DOCTYPE svg PUBLIC "-//W3C//DTD SVG 20010904//EN"
 "http://www.w3.org/TR/2001/REC-SVG-20010904/DTD/svg10.dtd">
<svg version="1.0" xmlns="http://www.w3.org/2000/svg"
 width="3000.000000pt" height="3000.000000pt" viewBox="0 0 3000.000000 3000.000000"
 preserveAspectRatio="xMidYMid meet">
<metadata>
Created by potrace 1.11, written by Peter Selinger 2001-2013
</metadata>
<g transform="translate(0.000000,3000.000000) scale(0.100000,-0.100000)"
fill="#000000" stroke="none">
<path d="M14395 29989 c-2695 -109 -5289 -933 -7549 -2398 -1725 -1118 -3229
-2608 -4361 -4321 -738 -1117 -1301 -2274 -1721 -3536 -1265 -3800 -949 -7995
871 -11550 887 -1734 2116 -3296 3586 -4559 2735 -2349 6177 -3625 9779 -3625
2862 0 5640 807 8042 2336 1238 788 2381 1777 3333 2885 2349 2735 3625 6177
3625 9779 0 2906 -833 5727 -2407 8152 -1122 1729 -2610 3231 -4323 4363
-1116 737 -2276 1302 -3536 1721 -1349 449 -2711 695 -4169 754 -286 11 -875
11 -1170 -1z"/>
</g>
</svg>
